<?xml version="1.0" encoding="UTF-8" standalone="no"?>
<svg
   width="64"
   height="64"
   version="1.1"
   id="svg43"
   sodipodi:docname="user.svg"
   inkscape:version="1.2.2 (b0a8486541, 2022-12-01)"
   inkscape:export-filename="user.png"
   inkscape:export-xdpi="96"
   inkscape:export-ydpi="96"
   xmlns:inkscape="http://www.inkscape.org/namespaces/inkscape"
   xmlns:sodipodi="http://sodipodi.sourceforge.net/DTD/sodipodi-0.dtd"
   xmlns:xlink="http://www.w3.org/1999/xlink"
   xmlns="http://www.w3.org/2000/svg"
   xmlns:svg="http://www.w3.org/2000/svg">
  <sodipodi:namedview
     id="namedview45"
     pagecolor="#ffffff"
     bordercolor="#000000"
     borderopacity="0.25"
     inkscape:showpageshadow="2"
     inkscape:pageopacity="0.0"
     inkscape:pagecheckerboard="0"
     inkscape:deskcolor="#d1d1d1"
     showgrid="false"
     inkscape:zoom="8.125"
     inkscape:cx="32.061538"
     inkscape:cy="32"
     inkscape:window-width="1366"
     inkscape:window-height="712"
     inkscape:window-x="0"
     inkscape:window-y="0"
     inkscape:window-maximized="1"
     inkscape:current-layer="svg43" />
  <defs
     id="defs23">
    <linearGradient
       id="a">
      <stop
         offset="0"
         stop-color="#fff"
         id="stop2" />
      <stop
         offset="1"
         stop-color="#d8f5fe"
         id="stop4" />
    </linearGradient>
    <linearGradient
       id="c"
       x1="399.99"
       x2="399.99"
       y1="545.14"
       y2="518.14"
       gradientTransform="translate(-826.36 -1107.5) scale(2.1429)"
       gradientUnits="userSpaceOnUse">
      <stop
         offset="0"
         stop-color="#197ff1"
         id="stop7" />
      <stop
         offset="1"
         stop-color="#21c6fb"
         id="stop9" />
    </linearGradient>
    <linearGradient
       xlink:href="#a"
       id="f"
       x1="-366.02"
       x2="-366.02"
       y1="1088.5"
       y2="1141.5"
       gradientTransform="matrix(0.60827753,0,0,0.60827753,251.75527,-646.22169)"
       gradientUnits="userSpaceOnUse" />
    <linearGradient
       xlink:href="#a"
       id="g"
       x1="-366.02"
       x2="-366.02"
       y1="1088.5"
       y2="1141.5"
       gradientTransform="matrix(0.49182286,0,0,0.49182286,218.3785,-513.30934)"
       gradientUnits="userSpaceOnUse" />
    <filter
       id="b"
       width="1.072"
       height="1.072"
       x="-0.035999999"
       y="-0.035999999"
       color-interpolation-filters="sRGB">
      <feGaussianBlur
         stdDeviation=".42"
         id="feGaussianBlur14" />
    </filter>
    <filter
       id="e"
       width="1.0687876"
       height="1.0755239"
       x="-0.034393789"
       y="-0.037761969"
       color-interpolation-filters="sRGB">
      <feGaussianBlur
         stdDeviation=".491"
         id="feGaussianBlur17" />
    </filter>
    <filter
       id="d"
       width="1.0687893"
       height="1.0755231"
       x="-0.03439463"
       y="-0.037761574"
       color-interpolation-filters="sRGB">
      <feGaussianBlur
         stdDeviation=".397"
         id="feGaussianBlur20" />
    </filter>
  </defs>
  <circle
     cx="400.57"
     cy="531.8"
     r="14"
     filter="url(#b)"
     opacity=".25"
     transform="translate(-826.36 -1107.5) scale(2.1429)"
     id="circle25" />
  <g
     stroke-width="1.571"
     id="g31">
    <circle
       cx="32.02"
       cy="32.044"
       r="30.001"
       fill="url(#c)"
       id="circle27" />
    <circle
       cx="32.02"
       cy="32.044"
       r="30.001"
       fill="none"
       id="circle29" />
  </g>
  <g
     id="g279"
     transform="matrix(1.2201901,0,0,1.2201901,-3.4461222,-7.0453566)">
    <path
       d="m 46.252,45.934 c 0,-5.61 -9.52,-8.473 -13.318,-9.49 0,0 0.157,-3.146 0.524,-4.3 0.367,-1.153 0.42,-2.464 0.577,-2.831 0.157,-0.367 2.011,-2.045 2.116,-3.618 -0.025,-0.939 -0.21,-1.161 -0.674,-1.161 v -4.876 c 0,-2.632 -3.837,-4.93 -6.356,-4.93 -2.52,0 -6.357,2.298 -6.357,4.93 v 4.876 c -0.463,0 -0.648,0.222 -0.673,1.16 0.104,1.574 1.958,3.252 2.115,3.619 0.158,0.367 0.21,1.678 0.577,2.831 0.367,1.154 0.525,4.3 0.525,4.3 -3.798,1.017 -13.318,3.88 -13.318,9.49 z"
       filter="url(#e)"
       opacity="0.25"
       transform="matrix(1.0254,0,0,1.0254,-0.811,0.898)"
       id="path35"
       style="fill-rule:evenodd;stroke-width:0.975" />
    <path
       fill="url(#f)"
       d="m 46.615801,47.998724 c 0,-5.752494 -9.761808,-8.688215 -13.656277,-9.731046 0,0 0.160987,-3.225909 0.537309,-4.40922 0.376322,-1.182287 0.430668,-2.526586 0.591656,-2.902908 0.160988,-0.376322 2.062079,-2.096943 2.169746,-3.709897 -0.02564,-0.962851 -0.215334,-1.190489 -0.691119,-1.190489 v -4.999851 c 0,-2.698853 -3.93446,-5.055222 -6.517443,-5.055222 -2.584008,0 -6.518467,2.356369 -6.518467,5.055222 v 4.999851 c -0.474761,0 -0.66446,0.227638 -0.690095,1.189464 0.106642,1.613979 2.007734,3.3346 2.168721,3.710922 0.162014,0.376322 0.215334,1.720621 0.591656,2.902908 0.376322,1.183311 0.538335,4.40922 0.538335,4.40922 -3.894469,1.042831 -13.656277,3.978552 -13.656277,9.731046 z"
       id="path37"
       style="fill:url(#f);fill-rule:evenodd;stroke-width:0.999765" />
  </g>
</svg>
